<?xml version="1.0" encoding="UTF-8"?>
<svg version="1.1" xmlns="http://www.w3.org/2000/svg" width="512" height="512">
<path d="M0 0 C1.8426948 -0.00599407 3.6853871 -0.01280162 5.52807617 -0.02035522 C10.50789413 -0.03793753 15.48764324 -0.04270744 20.46748924 -0.0439868 C23.58824238 -0.04541389 26.70897833 -0.04969411 29.82972717 -0.05498123 C40.74456888 -0.07345905 51.65936192 -0.08165507 62.57421875 -0.08007812 C72.70283138 -0.07887882 82.8312302 -0.09994556 92.9597888 -0.13156545 C101.69145556 -0.15784007 110.42305301 -0.16844069 119.15475893 -0.16716731 C124.35373244 -0.16666075 129.55251592 -0.17217184 134.75144958 -0.19352341 C139.65016259 -0.21309417 144.54850804 -0.21290352 149.44723511 -0.19849014 C151.22920783 -0.19642375 153.01120472 -0.20097067 154.7931366 -0.21321106 C170.39477347 -0.31330334 186.05881441 1.47415623 200.42382812 7.97802734 C201.20387207 8.32051514 201.98391602 8.66300293 202.78759766 9.01586914 C230.64222007 21.63580004 251.73474215 44.64575645 262.80224609 73.03417969 C266.49711078 83.33832556 268.76134651 94.14968482 268.75849915 105.09733582 C268.76217583 105.86493156 268.76585252 106.63252731 268.76964062 107.42338353 C268.78062099 109.98612001 268.78451178 112.54881585 268.78833008 115.11157227 C268.79459937 116.95352811 268.80124658 118.79548269 268.8082428 120.63743591 C268.82924342 126.68194709 268.83964662 132.72645838 268.84960938 138.77099609 C268.85365948 140.85884425 268.85777647 142.94669228 268.86195946 145.03454018 C268.88100828 154.85310503 268.89523574 164.67166241 268.90357143 174.49024218 C268.91332028 185.784332 268.93957947 197.07822459 268.98007232 208.37224501 C269.01036457 217.12503374 269.02505296 225.8777664 269.02835244 234.63060647 C269.03068945 239.8464343 269.03947146 245.06205141 269.06481361 250.27782249 C269.08832753 255.19697214 269.09223527 260.11577585 269.08205223 265.03496742 C269.08156225 266.82500494 269.08772062 268.61506085 269.10160828 270.40504456 C269.21592693 286.03446841 267.43985853 301.71115758 260.92382812 316.10302734 C260.58134033 316.88307129 260.23885254 317.66311523 259.88598633 318.46679688 C247.5905334 345.6052338 225.27078692 366.83973878 197.50732422 377.58398438 C182.69730488 383.10293827 168.87949163 384.59126802 153.20678711 384.58105469 C151.36246979 384.5870487 149.51815497 384.59385624 147.67384338 384.60140991 C142.68996048 384.61899156 137.70614637 384.62376206 132.72223544 384.62504148 C129.59947999 384.62646847 126.47674172 384.63074847 123.35399055 384.63603592 C112.43381781 384.65451263 101.51369372 384.66270978 90.59350586 384.66113281 C80.45692093 384.65993314 70.32054951 384.68100749 60.18401855 384.71262014 C51.44727192 384.73888425 42.71059457 384.74949583 33.97380883 384.74822199 C28.7709549 384.74771519 23.56829078 384.75324071 18.36547661 384.77457809 C13.46430438 384.79413129 8.56349966 384.79396983 3.66231346 384.77954483 C1.87830815 384.77747639 0.09427878 384.78203805 -1.68968582 384.79426575 C-29.39671577 384.97165292 -55.30144114 376.58011553 -76.38867188 358.29052734 C-77.19691406 357.62666016 -78.00515625 356.96279297 -78.83789062 356.27880859 C-93.02795225 344.22728059 -103.45348626 328.17596179 -109.76367188 310.72802734 C-109.99030518 310.10500732 -110.21693848 309.4819873 -110.45043945 308.84008789 C-114.95843852 295.44832984 -115.83237997 282.43556223 -115.79272461 268.44775391 C-115.79844147 266.60446767 -115.80541076 264.76118497 -115.81352234 262.91790771 C-115.83132629 257.9548167 -115.83030927 252.99190372 -115.82457995 248.02879047 C-115.82146863 243.86440592 -115.8276022 239.70005461 -115.8336187 235.53567481 C-115.84762127 225.69904752 -115.84613912 215.86250714 -115.8347168 206.02587891 C-115.82324769 195.9267097 -115.83730081 185.82780644 -115.86411327 175.72867227 C-115.88637175 167.01390108 -115.89288469 158.29921275 -115.88703686 149.5844152 C-115.88368929 144.3989269 -115.88593386 139.21360884 -115.90328789 134.02814484 C-115.91891714 129.14577757 -115.91462713 124.26379961 -115.89598274 119.38144684 C-115.89234018 117.60592719 -115.89527596 115.83037765 -115.90586853 114.05488586 C-115.99160056 98.47600273 -114.19509145 82.82106123 -107.70117188 68.47802734 C-107.18744019 67.30796143 -107.18744019 67.30796143 -106.66333008 66.11425781 C-94.36787715 38.97582089 -72.04813067 17.74131591 -44.28466797 6.99707031 C-29.48015627 1.48016884 -15.66693625 -0.01021893 0 0 Z " fill="#900CF7" transform="translate(227.388671875,15.70947265625)"/>
<path d="M0 0 C-0.00276538 1.27466928 -0.00276538 1.27466928 -0.00558662 2.57508945 C-0.04996132 23.35435367 -0.08295101 44.13360961 -0.10362434 64.91291142 C-0.11389026 74.96205928 -0.12785977 85.01117532 -0.15087891 95.06030273 C-0.17095754 103.83000046 -0.18375036 112.59967511 -0.18817699 121.3693952 C-0.19076015 126.00299182 -0.19673105 130.63652248 -0.21146011 135.27009773 C-0.36586255 185.92005747 4.7766443 228.98763322 41.7109375 266.7734375 C78.14651233 301.45835408 122.96388286 304.35292106 170.55861235 304.20278788 C175.26438013 304.19012195 179.97015163 304.18909772 184.67593384 304.18673706 C193.55046671 304.18056819 202.42494918 304.16422088 211.29946005 304.14403808 C221.4182712 304.1215344 231.537085 304.1106496 241.65591502 304.10064721 C262.43730461 304.07984952 283.2186491 304.04476483 304 304 C301.82695502 316.2391247 293.82375866 327.66237584 286 337 C285.15566406 338.00804687 284.31132812 339.01609375 283.44140625 340.0546875 C271.07521456 354.36686271 255.22222461 364.95478821 237.4375 371.375 C236.50309082 371.7148291 236.50309082 371.7148291 235.54980469 372.06152344 C222.15849728 376.5704953 209.14479246 377.4437074 195.15722656 377.40405273 C193.31394033 377.4097696 191.47065762 377.41673889 189.62738037 377.42485046 C184.66428935 377.44265441 179.70137637 377.4416374 174.73826313 377.43590808 C170.57387857 377.43279675 166.40952726 377.43893032 162.24514747 377.44494683 C152.40852017 377.4589494 142.5719798 377.45746724 132.73535156 377.44604492 C122.63618235 377.43457582 112.53727909 377.44862894 102.43814492 377.4754414 C93.72337374 377.49769988 85.0086854 377.50421281 76.29388785 377.49836498 C71.10839955 377.49501742 65.9230815 377.49726199 60.73761749 377.51461601 C55.85525022 377.53024527 50.97327227 377.52595525 46.09091949 377.50731087 C44.31539985 377.50366831 42.53985031 377.50660409 40.76435852 377.51719666 C25.18547539 377.60292868 9.53053389 375.80641958 -4.8125 369.3125 C-5.59254395 368.97001221 -6.37258789 368.62752441 -7.17626953 368.2746582 C-35.03089194 355.65472731 -56.12341402 332.64477089 -67.19091797 304.25634766 C-70.88932084 293.94233457 -73.15378576 283.12450123 -73.14044189 272.16627502 C-73.14341302 271.39585701 -73.14638414 270.625439 -73.1494453 269.83167499 C-73.15809111 267.25959836 -73.15963707 264.6875685 -73.16113281 262.11547852 C-73.16576407 260.26703289 -73.17078915 258.41858822 -73.17617798 256.57014465 C-73.18927829 251.55312422 -73.19574285 246.53611716 -73.20018864 241.51908231 C-73.20312448 238.37946409 -73.20723035 235.23984948 -73.21169281 232.10023308 C-73.22536435 222.26245248 -73.23503148 212.42468019 -73.2388947 202.58689076 C-73.24336832 191.25883679 -73.2608853 179.93090391 -73.2898953 168.60288674 C-73.3115763 159.82977765 -73.32160247 151.05670246 -73.32293582 142.28356689 C-73.32397968 137.05225872 -73.32979723 131.82106441 -73.34775543 126.58978462 C-73.36434637 121.66083949 -73.36633862 116.73209246 -73.35761642 111.8031292 C-73.35685179 110.00496766 -73.361112 108.20679499 -73.37107468 106.40866089 C-73.4429944 92.60618171 -72.13610093 79.65087309 -67.375 66.5625 C-66.99541138 65.51292114 -66.99541138 65.51292114 -66.6081543 64.44213867 C-61.44358166 50.78382807 -53.49279217 39.00866662 -44 28 C-43.35675781 27.25363281 -42.71351562 26.50726563 -42.05078125 25.73828125 C-31.70643405 14.67588826 -18.60254622 7.27293747 -5 1 C-3 0 -3 0 0 0 Z " fill="#940EF6" transform="translate(89,119)"/>
</svg>
